<svg xmlns="http://www.w3.org/2000/svg" version="1.1" xmlns:xlink="http://www.w3.org/1999/xlink" xmlns:svgjs="http://svgjs.com/svgjs" width="1440" height="1440" preserveAspectRatio="none" viewBox="0 0 1440 1440">
    <style type="text/css">
        #a { animation: x 5s ease-in-out alternate 3 }
        #b {animation: y 5s ease-in infinite; transition: opacity .5s ease-out;  animation-delay: 2s }
    
    
    
        @keyframes x {
           from { stroke-dasharray: 800; stroke-dashoffset: 800; transform: translateY(20%); scale: 0;}
           to { stroke-dasharray: 0; stroke-dashoffset: 0;  }
           
            
        }        
        @keyframes y {
           from { opacity: 0; transition: opacity .5s ease-out; transition: opacity .5s ease-out; }
           to { opacity: .7; fill: #fbc7d4; transition: opacity .5s ease-out; }
            
        }        

    
    
    
    </style>
    <g mask="url(&quot;#SvgjsMask1407&quot;)" fill="none">
        <rect width="1440" height="1440" x="0" y="0" fill="url(#SvgjsLinearGradient1408)"></rect>
        <path id='a' d="M151.55 139.91L237.29 189.41L237.29 288.41L151.55 337.91L65.81 288.41L65.81 189.41zM65.81 585.41L151.55 634.91L151.55 733.91L65.81 783.41L-19.93 733.91L-19.93 634.91zM65.81 1179.41L151.55 1228.91L151.55 1327.91L65.81 1377.41L-19.93 1327.91L-19.93 1228.91zM65.81 1476.41L151.55 1525.91L151.55 1624.91L65.81 1674.41L-19.93 1624.91L-19.93 1525.91zM323.03 139.91L408.77 189.41L408.77 288.41L323.03 337.91L237.29 288.41L237.29 189.41zM323.03 436.91L408.77 486.41L408.77 585.41L323.03 634.91L237.29 585.41L237.29 486.41zM237.29 585.41L323.03 634.91L323.03 733.91L237.29 783.41L151.55 733.91L151.55 634.91zM237.29 882.41L323.03 931.91L323.03 1030.91L237.29 1080.41L151.55 1030.91L151.55 931.91zM237.29 1179.41L323.03 1228.91L323.03 1327.91L237.29 1377.41L151.55 1327.91L151.55 1228.91zM408.77 -8.59L494.5 40.91L494.5 139.91L408.77 189.41L323.03 139.91L323.03 40.91zM494.5 436.91L580.24 486.41L580.24 585.41L494.5 634.91L408.77 585.41L408.77 486.41zM408.77 1179.41L494.5 1228.91L494.5 1327.91L408.77 1377.41L323.03 1327.91L323.03 1228.91zM494.5 1327.91L580.24 1377.41L580.24 1476.41L494.5 1525.91L408.77 1476.41L408.77 1377.41zM580.24 -8.59L665.98 40.91L665.98 139.91L580.24 189.41L494.5 139.91L494.5 40.91zM665.98 139.91L751.72 189.41L751.72 288.41L665.98 337.91L580.24 288.41L580.24 189.41zM580.24 288.41L665.98 337.91L665.98 436.91L580.24 486.41L494.5 436.91L494.5 337.91zM837.46 733.91L923.2 783.41L923.2 882.41L837.46 931.91L751.72 882.41L751.72 783.41zM751.72 882.41L837.46 931.91L837.46 1030.91L751.72 1080.41L665.98 1030.91L665.98 931.91zM837.46 1030.91L923.2 1080.41L923.2 1179.41L837.46 1228.91L751.72 1179.41L751.72 1080.41zM837.46 1327.91L923.2 1377.41L923.2 1476.41L837.46 1525.91L751.72 1476.41L751.72 1377.41zM923.2 882.41L1008.94 931.91L1008.94 1030.91L923.2 1080.41L837.46 1030.91L837.46 931.91zM1008.94 1030.91L1094.68 1080.41L1094.68 1179.41L1008.94 1228.91L923.2 1179.41L923.2 1080.41zM923.2 1179.41L1008.94 1228.91L1008.94 1327.91L923.2 1377.41L837.46 1327.91L837.46 1228.91zM1180.42 733.91L1266.16 783.41L1266.16 882.41L1180.42 931.91L1094.68 882.41L1094.68 783.41zM1094.68 882.41L1180.42 931.91L1180.42 1030.91L1094.68 1080.41L1008.94 1030.91L1008.94 931.91zM1180.42 1030.91L1266.16 1080.41L1266.16 1179.41L1180.42 1228.91L1094.68 1179.41L1094.68 1080.41zM1094.68 1179.41L1180.42 1228.91L1180.42 1327.91L1094.68 1377.41L1008.94 1327.91L1008.94 1228.91zM1094.68 1476.41L1180.42 1525.91L1180.42 1624.91L1094.68 1674.41L1008.94 1624.91L1008.94 1525.91zM1266.16 -8.59L1351.89 40.91L1351.89 139.91L1266.16 189.41L1180.42 139.91L1180.42 40.91zM1266.16 585.41L1351.89 634.91L1351.89 733.91L1266.16 783.41L1180.42 733.91L1180.42 634.91zM1351.89 733.91L1437.63 783.41L1437.63 882.41L1351.89 931.91L1266.16 882.41L1266.16 783.41zM1437.63 -8.59L1523.37 40.91L1523.37 139.91L1437.63 189.41L1351.89 139.91L1351.89 40.91zM1523.37 436.91L1609.11 486.41L1609.11 585.41L1523.37 634.91L1437.63 585.41L1437.63 486.41zM1437.63 585.41L1523.37 634.91L1523.37 733.91L1437.63 783.41L1351.89 733.91L1351.89 634.91zM1523.37 733.91L1609.11 783.41L1609.11 882.41L1523.37 931.91L1437.63 882.41L1437.63 783.41zM1523.37 1030.91L1609.11 1080.41L1609.11 1179.41L1523.37 1228.91L1437.63 1179.41L1437.63 1080.41z" stroke="#03305d" stroke-width="2"></path>
        <path id='a' d="M141.65 139.91 a9.9 9.9 0 1 0 19.8 0 a9.9 9.9 0 1 0 -19.8 0zM227.39 189.41 a9.9 9.9 0 1 0 19.8 0 a9.9 9.9 0 1 0 -19.8 0zM227.39 288.41 a9.9 9.9 0 1 0 19.8 0 a9.9 9.9 0 1 0 -19.8 0zM141.65 337.91 a9.9 9.9 0 1 0 19.8 0 a9.9 9.9 0 1 0 -19.8 0zM55.91 288.41 a9.9 9.9 0 1 0 19.8 0 a9.9 9.9 0 1 0 -19.8 0zM55.91 189.41 a9.9 9.9 0 1 0 19.8 0 a9.9 9.9 0 1 0 -19.8 0zM55.91 585.41 a9.9 9.9 0 1 0 19.8 0 a9.9 9.9 0 1 0 -19.8 0zM141.65 634.91 a9.9 9.9 0 1 0 19.8 0 a9.9 9.9 0 1 0 -19.8 0zM141.65 733.91 a9.9 9.9 0 1 0 19.8 0 a9.9 9.9 0 1 0 -19.8 0zM55.91 783.41 a9.9 9.9 0 1 0 19.8 0 a9.9 9.9 0 1 0 -19.8 0zM-29.83 733.91 a9.9 9.9 0 1 0 19.8 0 a9.9 9.9 0 1 0 -19.8 0zM-29.83 634.91 a9.9 9.9 0 1 0 19.8 0 a9.9 9.9 0 1 0 -19.8 0zM55.91 1179.41 a9.9 9.9 0 1 0 19.8 0 a9.9 9.9 0 1 0 -19.8 0zM141.65 1228.91 a9.9 9.9 0 1 0 19.8 0 a9.9 9.9 0 1 0 -19.8 0zM141.65 1327.91 a9.9 9.9 0 1 0 19.8 0 a9.9 9.9 0 1 0 -19.8 0zM55.91 1377.41 a9.9 9.9 0 1 0 19.8 0 a9.9 9.9 0 1 0 -19.8 0zM-29.83 1327.91 a9.9 9.9 0 1 0 19.8 0 a9.9 9.9 0 1 0 -19.8 0zM-29.83 1228.91 a9.9 9.9 0 1 0 19.8 0 a9.9 9.9 0 1 0 -19.8 0zM55.91 1476.41 a9.9 9.9 0 1 0 19.8 0 a9.9 9.9 0 1 0 -19.8 0zM141.65 1525.91 a9.9 9.9 0 1 0 19.8 0 a9.9 9.9 0 1 0 -19.8 0zM141.65 1624.91 a9.9 9.9 0 1 0 19.8 0 a9.9 9.9 0 1 0 -19.8 0zM55.91 1674.41 a9.9 9.9 0 1 0 19.8 0 a9.9 9.9 0 1 0 -19.8 0zM-29.83 1624.91 a9.9 9.9 0 1 0 19.8 0 a9.9 9.9 0 1 0 -19.8 0zM-29.83 1525.91 a9.9 9.9 0 1 0 19.8 0 a9.9 9.9 0 1 0 -19.8 0zM313.13 139.91 a9.9 9.9 0 1 0 19.8 0 a9.9 9.9 0 1 0 -19.8 0zM398.87 189.41 a9.9 9.9 0 1 0 19.8 0 a9.9 9.9 0 1 0 -19.8 0zM398.87 288.41 a9.9 9.9 0 1 0 19.8 0 a9.9 9.9 0 1 0 -19.8 0zM313.13 337.91 a9.9 9.9 0 1 0 19.8 0 a9.9 9.9 0 1 0 -19.8 0zM313.13 436.91 a9.9 9.9 0 1 0 19.8 0 a9.9 9.9 0 1 0 -19.8 0zM398.87 486.41 a9.9 9.9 0 1 0 19.8 0 a9.9 9.9 0 1 0 -19.8 0zM398.87 585.41 a9.9 9.9 0 1 0 19.8 0 a9.9 9.9 0 1 0 -19.8 0zM313.13 634.91 a9.9 9.9 0 1 0 19.8 0 a9.9 9.9 0 1 0 -19.8 0zM227.39 585.41 a9.9 9.9 0 1 0 19.8 0 a9.9 9.9 0 1 0 -19.8 0zM227.39 486.41 a9.9 9.9 0 1 0 19.8 0 a9.9 9.9 0 1 0 -19.8 0zM313.13 733.91 a9.9 9.9 0 1 0 19.8 0 a9.9 9.9 0 1 0 -19.8 0zM227.39 783.41 a9.9 9.9 0 1 0 19.8 0 a9.9 9.9 0 1 0 -19.8 0zM227.39 882.41 a9.9 9.9 0 1 0 19.8 0 a9.9 9.9 0 1 0 -19.8 0zM313.13 931.91 a9.9 9.9 0 1 0 19.8 0 a9.9 9.9 0 1 0 -19.8 0zM313.13 1030.91 a9.9 9.9 0 1 0 19.8 0 a9.9 9.9 0 1 0 -19.8 0zM227.39 1080.41 a9.9 9.9 0 1 0 19.8 0 a9.9 9.9 0 1 0 -19.8 0zM141.65 1030.91 a9.9 9.9 0 1 0 19.8 0 a9.9 9.9 0 1 0 -19.8 0zM141.65 931.91 a9.9 9.9 0 1 0 19.8 0 a9.9 9.9 0 1 0 -19.8 0zM227.39 1179.41 a9.9 9.9 0 1 0 19.8 0 a9.9 9.9 0 1 0 -19.8 0zM313.13 1228.91 a9.9 9.9 0 1 0 19.8 0 a9.9 9.9 0 1 0 -19.8 0zM313.13 1327.91 a9.9 9.9 0 1 0 19.8 0 a9.9 9.9 0 1 0 -19.8 0zM227.39 1377.41 a9.9 9.9 0 1 0 19.8 0 a9.9 9.9 0 1 0 -19.8 0zM398.87 -8.59 a9.9 9.9 0 1 0 19.8 0 a9.9 9.9 0 1 0 -19.8 0zM484.6 40.91 a9.9 9.9 0 1 0 19.8 0 a9.9 9.9 0 1 0 -19.8 0zM484.6 139.91 a9.9 9.9 0 1 0 19.8 0 a9.9 9.9 0 1 0 -19.8 0zM313.13 40.91 a9.9 9.9 0 1 0 19.8 0 a9.9 9.9 0 1 0 -19.8 0zM484.6 436.91 a9.9 9.9 0 1 0 19.8 0 a9.9 9.9 0 1 0 -19.8 0zM570.34 486.41 a9.9 9.9 0 1 0 19.8 0 a9.9 9.9 0 1 0 -19.8 0zM570.34 585.41 a9.9 9.9 0 1 0 19.8 0 a9.9 9.9 0 1 0 -19.8 0zM484.6 634.91 a9.9 9.9 0 1 0 19.8 0 a9.9 9.9 0 1 0 -19.8 0zM398.87 1179.41 a9.9 9.9 0 1 0 19.8 0 a9.9 9.9 0 1 0 -19.8 0zM484.6 1228.91 a9.9 9.9 0 1 0 19.8 0 a9.9 9.9 0 1 0 -19.8 0zM484.6 1327.91 a9.9 9.9 0 1 0 19.8 0 a9.9 9.9 0 1 0 -19.8 0zM398.87 1377.41 a9.9 9.9 0 1 0 19.8 0 a9.9 9.9 0 1 0 -19.8 0zM570.34 1377.41 a9.9 9.9 0 1 0 19.8 0 a9.9 9.9 0 1 0 -19.8 0zM570.34 1476.41 a9.9 9.9 0 1 0 19.8 0 a9.9 9.9 0 1 0 -19.8 0zM484.6 1525.91 a9.9 9.9 0 1 0 19.8 0 a9.9 9.9 0 1 0 -19.8 0zM398.87 1476.41 a9.9 9.9 0 1 0 19.8 0 a9.9 9.9 0 1 0 -19.8 0zM570.34 -8.59 a9.9 9.9 0 1 0 19.8 0 a9.9 9.9 0 1 0 -19.8 0zM656.08 40.91 a9.9 9.9 0 1 0 19.8 0 a9.9 9.9 0 1 0 -19.8 0zM656.08 139.91 a9.9 9.9 0 1 0 19.8 0 a9.9 9.9 0 1 0 -19.8 0zM570.34 189.41 a9.9 9.9 0 1 0 19.8 0 a9.9 9.9 0 1 0 -19.8 0zM741.82 189.41 a9.9 9.9 0 1 0 19.8 0 a9.9 9.9 0 1 0 -19.8 0zM741.82 288.41 a9.9 9.9 0 1 0 19.8 0 a9.9 9.9 0 1 0 -19.8 0zM656.08 337.91 a9.9 9.9 0 1 0 19.8 0 a9.9 9.9 0 1 0 -19.8 0zM570.34 288.41 a9.9 9.9 0 1 0 19.8 0 a9.9 9.9 0 1 0 -19.8 0zM656.08 436.91 a9.9 9.9 0 1 0 19.8 0 a9.9 9.9 0 1 0 -19.8 0zM484.6 337.91 a9.9 9.9 0 1 0 19.8 0 a9.9 9.9 0 1 0 -19.8 0zM827.56 733.91 a9.9 9.9 0 1 0 19.8 0 a9.9 9.9 0 1 0 -19.8 0zM913.3 783.41 a9.9 9.9 0 1 0 19.8 0 a9.9 9.9 0 1 0 -19.8 0zM913.3 882.41 a9.9 9.9 0 1 0 19.8 0 a9.9 9.9 0 1 0 -19.8 0zM827.56 931.91 a9.9 9.9 0 1 0 19.8 0 a9.9 9.9 0 1 0 -19.8 0zM741.82 882.41 a9.9 9.9 0 1 0 19.8 0 a9.9 9.9 0 1 0 -19.8 0zM741.82 783.41 a9.9 9.9 0 1 0 19.8 0 a9.9 9.9 0 1 0 -19.8 0zM827.56 1030.91 a9.9 9.9 0 1 0 19.8 0 a9.9 9.9 0 1 0 -19.8 0zM741.82 1080.41 a9.9 9.9 0 1 0 19.8 0 a9.9 9.9 0 1 0 -19.8 0zM656.08 1030.91 a9.9 9.9 0 1 0 19.8 0 a9.9 9.9 0 1 0 -19.8 0zM656.08 931.91 a9.9 9.9 0 1 0 19.8 0 a9.9 9.9 0 1 0 -19.8 0zM913.3 1080.41 a9.9 9.9 0 1 0 19.8 0 a9.9 9.9 0 1 0 -19.8 0zM913.3 1179.41 a9.9 9.9 0 1 0 19.8 0 a9.9 9.9 0 1 0 -19.8 0zM827.56 1228.91 a9.9 9.9 0 1 0 19.8 0 a9.9 9.9 0 1 0 -19.8 0zM741.82 1179.41 a9.9 9.9 0 1 0 19.8 0 a9.9 9.9 0 1 0 -19.8 0zM827.56 1327.91 a9.9 9.9 0 1 0 19.8 0 a9.9 9.9 0 1 0 -19.8 0zM913.3 1377.41 a9.9 9.9 0 1 0 19.8 0 a9.9 9.9 0 1 0 -19.8 0zM913.3 1476.41 a9.9 9.9 0 1 0 19.8 0 a9.9 9.9 0 1 0 -19.8 0zM827.56 1525.91 a9.9 9.9 0 1 0 19.8 0 a9.9 9.9 0 1 0 -19.8 0zM741.82 1476.41 a9.9 9.9 0 1 0 19.8 0 a9.9 9.9 0 1 0 -19.8 0zM741.82 1377.41 a9.9 9.9 0 1 0 19.8 0 a9.9 9.9 0 1 0 -19.8 0zM999.04 931.91 a9.9 9.9 0 1 0 19.8 0 a9.9 9.9 0 1 0 -19.8 0zM999.04 1030.91 a9.9 9.9 0 1 0 19.8 0 a9.9 9.9 0 1 0 -19.8 0zM1084.78 1080.41 a9.9 9.9 0 1 0 19.8 0 a9.9 9.9 0 1 0 -19.8 0zM1084.78 1179.41 a9.9 9.9 0 1 0 19.8 0 a9.9 9.9 0 1 0 -19.8 0zM999.04 1228.91 a9.9 9.9 0 1 0 19.8 0 a9.9 9.9 0 1 0 -19.8 0zM999.04 1327.91 a9.9 9.9 0 1 0 19.8 0 a9.9 9.9 0 1 0 -19.8 0zM1170.52 733.91 a9.9 9.9 0 1 0 19.8 0 a9.9 9.9 0 1 0 -19.8 0zM1256.26 783.41 a9.9 9.9 0 1 0 19.8 0 a9.9 9.9 0 1 0 -19.8 0zM1256.26 882.41 a9.9 9.9 0 1 0 19.8 0 a9.9 9.9 0 1 0 -19.8 0zM1170.52 931.91 a9.9 9.9 0 1 0 19.8 0 a9.9 9.9 0 1 0 -19.8 0zM1084.78 882.41 a9.9 9.9 0 1 0 19.8 0 a9.9 9.9 0 1 0 -19.8 0zM1084.78 783.41 a9.9 9.9 0 1 0 19.8 0 a9.9 9.9 0 1 0 -19.8 0zM1170.52 1030.91 a9.9 9.9 0 1 0 19.8 0 a9.9 9.9 0 1 0 -19.8 0zM1256.26 1080.41 a9.9 9.9 0 1 0 19.8 0 a9.9 9.9 0 1 0 -19.8 0zM1256.26 1179.41 a9.9 9.9 0 1 0 19.8 0 a9.9 9.9 0 1 0 -19.8 0zM1170.52 1228.91 a9.9 9.9 0 1 0 19.8 0 a9.9 9.9 0 1 0 -19.8 0zM1170.52 1327.91 a9.9 9.9 0 1 0 19.8 0 a9.9 9.9 0 1 0 -19.8 0zM1084.78 1377.41 a9.9 9.9 0 1 0 19.8 0 a9.9 9.9 0 1 0 -19.8 0zM1084.78 1476.41 a9.9 9.9 0 1 0 19.8 0 a9.9 9.9 0 1 0 -19.8 0zM1170.52 1525.91 a9.9 9.9 0 1 0 19.8 0 a9.9 9.9 0 1 0 -19.8 0zM1170.52 1624.91 a9.9 9.9 0 1 0 19.8 0 a9.9 9.9 0 1 0 -19.8 0zM1084.78 1674.41 a9.9 9.9 0 1 0 19.8 0 a9.9 9.9 0 1 0 -19.8 0zM999.04 1624.91 a9.9 9.9 0 1 0 19.8 0 a9.9 9.9 0 1 0 -19.8 0zM999.04 1525.91 a9.9 9.9 0 1 0 19.8 0 a9.9 9.9 0 1 0 -19.8 0zM1256.26 -8.59 a9.9 9.9 0 1 0 19.8 0 a9.9 9.9 0 1 0 -19.8 0zM1341.99 40.91 a9.9 9.9 0 1 0 19.8 0 a9.9 9.9 0 1 0 -19.8 0zM1341.99 139.91 a9.9 9.9 0 1 0 19.8 0 a9.9 9.9 0 1 0 -19.8 0zM1256.26 189.41 a9.9 9.9 0 1 0 19.8 0 a9.9 9.9 0 1 0 -19.8 0zM1170.52 139.91 a9.9 9.9 0 1 0 19.8 0 a9.9 9.9 0 1 0 -19.8 0zM1170.52 40.91 a9.9 9.9 0 1 0 19.8 0 a9.9 9.9 0 1 0 -19.8 0zM1256.26 585.41 a9.9 9.9 0 1 0 19.8 0 a9.9 9.9 0 1 0 -19.8 0zM1341.99 634.91 a9.9 9.9 0 1 0 19.8 0 a9.9 9.9 0 1 0 -19.8 0zM1341.99 733.91 a9.9 9.9 0 1 0 19.8 0 a9.9 9.9 0 1 0 -19.8 0zM1170.52 634.91 a9.9 9.9 0 1 0 19.8 0 a9.9 9.9 0 1 0 -19.8 0zM1427.73 783.41 a9.9 9.9 0 1 0 19.8 0 a9.9 9.9 0 1 0 -19.8 0zM1427.73 882.41 a9.9 9.9 0 1 0 19.8 0 a9.9 9.9 0 1 0 -19.8 0zM1341.99 931.91 a9.9 9.9 0 1 0 19.8 0 a9.9 9.9 0 1 0 -19.8 0zM1427.73 -8.59 a9.9 9.9 0 1 0 19.8 0 a9.9 9.9 0 1 0 -19.8 0zM1513.47 40.91 a9.9 9.9 0 1 0 19.8 0 a9.9 9.9 0 1 0 -19.8 0zM1513.47 139.91 a9.9 9.9 0 1 0 19.8 0 a9.9 9.9 0 1 0 -19.8 0zM1427.73 189.41 a9.9 9.9 0 1 0 19.8 0 a9.9 9.9 0 1 0 -19.8 0zM1513.47 436.91 a9.9 9.9 0 1 0 19.8 0 a9.9 9.9 0 1 0 -19.8 0zM1599.21 486.41 a9.9 9.9 0 1 0 19.8 0 a9.9 9.9 0 1 0 -19.8 0zM1599.21 585.41 a9.9 9.9 0 1 0 19.8 0 a9.9 9.9 0 1 0 -19.8 0zM1513.47 634.91 a9.9 9.9 0 1 0 19.8 0 a9.9 9.9 0 1 0 -19.8 0zM1427.73 585.41 a9.9 9.9 0 1 0 19.8 0 a9.9 9.9 0 1 0 -19.8 0zM1427.73 486.41 a9.9 9.9 0 1 0 19.8 0 a9.9 9.9 0 1 0 -19.8 0zM1513.47 733.91 a9.9 9.9 0 1 0 19.8 0 a9.9 9.9 0 1 0 -19.8 0zM1599.21 783.41 a9.9 9.9 0 1 0 19.8 0 a9.9 9.9 0 1 0 -19.8 0zM1599.21 882.41 a9.9 9.9 0 1 0 19.8 0 a9.9 9.9 0 1 0 -19.8 0zM1513.47 931.91 a9.9 9.9 0 1 0 19.8 0 a9.9 9.9 0 1 0 -19.8 0zM1513.47 1030.91 a9.9 9.9 0 1 0 19.8 0 a9.9 9.9 0 1 0 -19.8 0zM1599.21 1080.41 a9.9 9.9 0 1 0 19.8 0 a9.9 9.9 0 1 0 -19.8 0zM1599.21 1179.41 a9.9 9.9 0 1 0 19.8 0 a9.9 9.9 0 1 0 -19.8 0zM1513.47 1228.91 a9.9 9.9 0 1 0 19.8 0 a9.9 9.9 0 1 0 -19.8 0zM1427.73 1179.41 a9.9 9.9 0 1 0 19.8 0 a9.9 9.9 0 1 0 -19.8 0zM1427.73 1080.41 a9.9 9.9 0 1 0 19.8 0 a9.9 9.9 0 1 0 -19.8 0z" fill="#03305d"></path>
        <path id='a' d="M15.39 1003.42L58.69 1028.42L58.69 1078.42L15.39 1103.42L-27.91 1078.42L-27.91 1028.42zM58.69 1078.42L102 1103.42L102 1153.42L58.69 1178.42L15.39 1153.42L15.39 1103.42zM58.69 1228.42L102 1253.42L102 1303.42L58.69 1328.42L15.39 1303.42L15.39 1253.42zM145.3 178.42L188.6 203.42L188.6 253.42L145.3 278.42L102 253.42L102 203.42zM102 403.42L145.3 428.42L145.3 478.42L102 503.42L58.69 478.42L58.69 428.42zM102 703.42L145.3 728.42L145.3 778.42L102 803.42L58.69 778.42L58.69 728.42zM145.3 778.42L188.6 803.42L188.6 853.42L145.3 878.42L102 853.42L102 803.42zM102 1003.42L145.3 1028.42L145.3 1078.42L102 1103.42L58.69 1078.42L58.69 1028.42zM188.6 403.42L231.9 428.42L231.9 478.42L188.6 503.42L145.3 478.42L145.3 428.42zM231.9 1078.42L275.2 1103.42L275.2 1153.42L231.9 1178.42L188.6 1153.42L188.6 1103.42zM188.6 1153.42L231.9 1178.42L231.9 1228.42L188.6 1253.42L145.3 1228.42L145.3 1178.42zM188.6 1303.42L231.9 1328.42L231.9 1378.42L188.6 1403.42L145.3 1378.42L145.3 1328.42zM318.51 178.42L361.81 203.42L361.81 253.42L318.51 278.42L275.2 253.42L275.2 203.42zM275.2 253.42L318.51 278.42L318.51 328.42L275.2 353.42L231.9 328.42L231.9 278.42zM275.2 403.42L318.51 428.42L318.51 478.42L275.2 503.42L231.9 478.42L231.9 428.42zM318.51 1228.42L361.81 1253.42L361.81 1303.42L318.51 1328.42L275.2 1303.42L275.2 1253.42zM405.11 28.42L448.42 53.42L448.42 103.42L405.11 128.42L361.81 103.42L361.81 53.42zM361.81 103.42L405.11 128.42L405.11 178.42L361.81 203.42L318.51 178.42L318.51 128.42zM405.11 478.42L448.42 503.42L448.42 553.42L405.11 578.42L361.81 553.42L361.81 503.42zM405.11 628.42L448.42 653.42L448.42 703.42L405.11 728.42L361.81 703.42L361.81 653.42zM361.81 1153.42L405.11 1178.42L405.11 1228.42L361.81 1253.42L318.51 1228.42L318.51 1178.42zM405.11 1378.42L448.42 1403.42L448.42 1453.42L405.11 1478.42L361.81 1453.42L361.81 1403.42zM491.72 928.42L535.02 953.42L535.02 1003.42L491.72 1028.42L448.42 1003.42L448.42 953.42zM491.72 1078.42L535.02 1103.42L535.02 1153.42L491.72 1178.42L448.42 1153.42L448.42 1103.42zM448.42 1153.42L491.72 1178.42L491.72 1228.42L448.42 1253.42L405.11 1228.42L405.11 1178.42zM621.63 553.42L664.93 578.42L664.93 628.42L621.63 653.42L578.32 628.42L578.32 578.42zM621.63 703.42L664.93 728.42L664.93 778.42L621.63 803.42L578.32 778.42L578.32 728.42zM621.63 853.42L664.93 878.42L664.93 928.42L621.63 953.42L578.32 928.42L578.32 878.42zM664.93 1078.42L708.23 1103.42L708.23 1153.42L664.93 1178.42L621.63 1153.42L621.63 1103.42zM664.93 1378.42L708.23 1403.42L708.23 1453.42L664.93 1478.42L621.63 1453.42L621.63 1403.42zM708.23 553.42L751.53 578.42L751.53 628.42L708.23 653.42L664.93 628.42L664.93 578.42zM708.23 703.42L751.53 728.42L751.53 778.42L708.23 803.42L664.93 778.42L664.93 728.42zM708.23 1303.42L751.53 1328.42L751.53 1378.42L708.23 1403.42L664.93 1378.42L664.93 1328.42zM838.14 628.42L881.44 653.42L881.44 703.42L838.14 728.42L794.84 703.42L794.84 653.42zM881.44 -46.58L924.74 -21.58L924.74 28.42L881.44 53.42L838.14 28.42L838.14 -21.58zM881.44 253.42L924.74 278.42L924.74 328.42L881.44 353.42L838.14 328.42L838.14 278.42zM924.74 628.42L968.05 653.42L968.05 703.42L924.74 728.42L881.44 703.42L881.44 653.42zM881.44 853.42L924.74 878.42L924.74 928.42L881.44 953.42L838.14 928.42L838.14 878.42zM968.05 -46.58L1011.35 -21.58L1011.35 28.42L968.05 53.42L924.74 28.42L924.74 -21.58zM1011.35 478.42L1054.65 503.42L1054.65 553.42L1011.35 578.42L968.05 553.42L968.05 503.42zM1011.35 1078.42L1054.65 1103.42L1054.65 1153.42L1011.35 1178.42L968.05 1153.42L968.05 1103.42zM968.05 1153.42L1011.35 1178.42L1011.35 1228.42L968.05 1253.42L924.74 1228.42L924.74 1178.42zM1097.95 28.42L1141.26 53.42L1141.26 103.42L1097.95 128.42L1054.65 103.42L1054.65 53.42zM1097.95 778.42L1141.26 803.42L1141.26 853.42L1097.95 878.42L1054.65 853.42L1054.65 803.42zM1054.65 853.42L1097.95 878.42L1097.95 928.42L1054.65 953.42L1011.35 928.42L1011.35 878.42zM1097.95 928.42L1141.26 953.42L1141.26 1003.42L1097.95 1028.42L1054.65 1003.42L1054.65 953.42zM1054.65 1003.42L1097.95 1028.42L1097.95 1078.42L1054.65 1103.42L1011.35 1078.42L1011.35 1028.42zM1054.65 1153.42L1097.95 1178.42L1097.95 1228.42L1054.65 1253.42L1011.35 1228.42L1011.35 1178.42zM1141.26 253.42L1184.56 278.42L1184.56 328.42L1141.26 353.42L1097.95 328.42L1097.95 278.42zM1184.56 328.42L1227.86 353.42L1227.86 403.42L1184.56 428.42L1141.26 403.42L1141.26 353.42zM1141.26 553.42L1184.56 578.42L1184.56 628.42L1141.26 653.42L1097.95 628.42L1097.95 578.42zM1141.26 703.42L1184.56 728.42L1184.56 778.42L1141.26 803.42L1097.95 778.42L1097.95 728.42zM1184.56 1078.42L1227.86 1103.42L1227.86 1153.42L1184.56 1178.42L1141.26 1153.42L1141.26 1103.42zM1184.56 1228.42L1227.86 1253.42L1227.86 1303.42L1184.56 1328.42L1141.26 1303.42L1141.26 1253.42zM1271.16 28.42L1314.47 53.42L1314.47 103.42L1271.16 128.42L1227.86 103.42L1227.86 53.42zM1227.86 253.42L1271.16 278.42L1271.16 328.42L1227.86 353.42L1184.56 328.42L1184.56 278.42zM1271.16 328.42L1314.47 353.42L1314.47 403.42L1271.16 428.42L1227.86 403.42L1227.86 353.42zM1227.86 1153.42L1271.16 1178.42L1271.16 1228.42L1227.86 1253.42L1184.56 1228.42L1184.56 1178.42zM1357.77 178.42L1401.07 203.42L1401.07 253.42L1357.77 278.42L1314.47 253.42L1314.47 203.42zM1314.47 403.42L1357.77 428.42L1357.77 478.42L1314.47 503.42L1271.16 478.42L1271.16 428.42zM1357.77 628.42L1401.07 653.42L1401.07 703.42L1357.77 728.42L1314.47 703.42L1314.47 653.42zM1357.77 928.42L1401.07 953.42L1401.07 1003.42L1357.77 1028.42L1314.47 1003.42L1314.47 953.42zM1314.47 1153.42L1357.77 1178.42L1357.77 1228.42L1314.47 1253.42L1271.16 1228.42L1271.16 1178.42zM1401.07 -46.58L1444.37 -21.58L1444.37 28.42L1401.07 53.42L1357.77 28.42L1357.77 -21.58zM1444.37 1078.42L1487.68 1103.42L1487.68 1153.42L1444.37 1178.42L1401.07 1153.42L1401.07 1103.42z" stroke="url(#SvgjsLinearGradient1409)" stroke-width="2"></path>
    </g>
    <defs id='b'>
        <mask id="SvgjsMask1407">
            <rect width="1440" height="1440" fill="#ffffff"></rect>
        </mask>
        <linearGradient x1="50%" y1="0%" x2="50%" y2="100%" gradientUnits="userSpaceOnUse" id="SvgjsLinearGradient1408">
            <stop stop-color="#0e2a47" offset="0"></stop>
            <stop stop-color="rgba(59, 8, 71, 1)" offset="1"></stop>
        </linearGradient>
        <linearGradient x1="0" y1="1440" x2="1440" y2="0" gradientUnits="userSpaceOnUse" id="SvgjsLinearGradient1409">
            <stop id='b' stop-color="#0e2a47" offset="0"></stop>
            <stop id='b' stop-color="rgba(0, 123, 158, 1)" offset="1"></stop>
        </linearGradient>
    </defs>
</svg>